<?xml version="1.0" encoding="UTF-8"?>
<!DOCTYPE svg PUBLIC "-//W3C//DTD SVG 1.1//EN" "http://www.w3.org/Graphics/SVG/1.1/DTD/svg11.dtd">
<!-- Creator: CorelDRAW 2019 (64-Bit) -->
<svg xmlns="http://www.w3.org/2000/svg" xml:space="preserve" width="7.5in" height="7in" version="1.1" style="shape-rendering:geometricPrecision; text-rendering:geometricPrecision; image-rendering:optimizeQuality; fill-rule:evenodd; clip-rule:evenodd"
viewBox="0 0 7500 7000"
 xmlns:xlink="http://www.w3.org/1999/xlink"
 xmlns:xodm="http://www.corel.com/coreldraw/odm/2003">
 <defs>
  <style type="text/css">
   <![CDATA[
    .fil1 {fill:#FEFEFE}
    .fil0 {fill:#14BF98}
    .fil2 {fill:#14BF98}
   ]]>
  </style>
 </defs>
 <g id="Layer_x0020_1">
  <metadata id="CorelCorpID_0Corel-Layer"/>
  <g id="_1902988753248">
   <path id="hexagon-green.svg" class="fil0" d="M236.23 3920.51c-116.76,-240.81 -116.76,-518.12 0,-758.93l1422.99 -2459.22c145.94,-226.22 386.76,-364.87 656.76,-379.46l2845.98 -0c270,14.59 510.81,153.24 656.76,379.46l1422.99 2466.52c116.76,240.81 116.76,518.12 0,758.93l-1422.99 2459.22c-145.94,226.22 -386.76,364.87 -656.76,379.46l-2845.98 0c-270,-14.59 -510.81,-153.24 -656.76,-379.46l-1422.99 -2466.52z"/>
   <g>
    <path class="fil1" d="M3219.74 4488.15c6.13,217.83 -72.62,623.33 197.96,623.64 272.93,0.31 188.71,-406.62 198.61,-623.64l244.83 -0.63c8.93,217.6 -74.72,624.52 197.62,624.3 270.67,-0.22 191.85,-405.89 197.98,-623.66 398.09,-6.08 352.61,-16.47 352.61,-537.73 0,-304.54 -5.33,-613.88 1.35,-917.83l-1748.81 -7.33 13.57 1338.61c41.72,149.02 201.16,122.09 344.28,124.28z"/>
    <path class="fil1" d="M3291.44 2245.51c-111.74,86.62 -178.09,101.41 -299.52,257.72 -88.49,113.91 -131.93,273.46 -132.2,450.48l1757.05 0.28c0.92,-432.83 -202.87,-531.07 -431.72,-708.48 39.24,-78.69 139.83,-179.24 121.81,-267.94 -84.07,18.37 -136.01,161.72 -193.87,236.67 -310.87,-90.32 -438.63,-90.32 -749.5,0 -55.24,-74.74 -110.2,-219.5 -193.87,-236.67 -17.27,89.08 82.58,188.52 121.81,267.94z"/>
    <path class="fil1" d="M2519.02 3002.11c-216.56,60.67 -148.7,408.56 -148.7,649.94 0,224.73 -60.26,601.13 250.68,529.62 217.05,-49.91 138.96,-466.35 138.96,-657.49 0,-157.63 66.64,-608.24 -240.94,-522.07z"/>
    <path class="fil1" d="M4867.34 3000.46c-211.84,50.66 -150.81,313.69 -150.81,651.59 -0.01,212.78 -63.51,605.01 253.73,528.01 206.17,-50.06 135.91,-445.6 135.91,-655.88 0.01,-144.96 67.21,-596.9 -238.82,-523.72z"/>
    <path class="fil2" d="M3299.52 2616.5c77.33,61.27 143.34,-55.92 59.34,-103.97 -33.37,-19.09 -120.64,24.37 -59.34,103.97z"/>
    <path class="fil2" d="M4103.97 2611.53c77.33,61.26 143.34,-55.92 59.34,-103.98 -33.37,-19.09 -120.64,24.37 -59.34,103.98z"/>
   </g>
  </g>
 </g>
</svg>
