<?xml version="1.0" encoding="UTF-8"?>
<!DOCTYPE svg PUBLIC "-//W3C//DTD SVG 1.1//EN" "http://www.w3.org/Graphics/SVG/1.1/DTD/svg11.dtd">
<!-- Creator: CorelDRAW 2019 (64-Bit) -->
<svg xmlns="http://www.w3.org/2000/svg" xml:space="preserve" width="7.5in" height="7in" version="1.1" style="shape-rendering:geometricPrecision; text-rendering:geometricPrecision; image-rendering:optimizeQuality; fill-rule:evenodd; clip-rule:evenodd"
viewBox="0 0 7500 7000"
 xmlns:xlink="http://www.w3.org/1999/xlink"
 xmlns:xodm="http://www.corel.com/coreldraw/odm/2003">
 <defs>
  <style type="text/css">
   <![CDATA[
    .str0 {stroke:#14BF98;stroke-width:6.94;stroke-miterlimit:2.61313}
    .fil1 {fill:#FEFEFE}
    .fil0 {fill:#14BF98}
    .fil2 {fill:#14BF98}
   ]]>
  </style>
 </defs>
 <g id="Layer_x0020_1">
  <metadata id="CorelCorpID_0Corel-Layer"/>
  <g id="_1902988775104">
   <path id="hexagon-green.svg" class="fil0" d="M227.89 3945.51c-116.76,-240.81 -116.76,-518.12 0,-758.93l1422.99 -2459.22c145.94,-226.22 386.76,-364.87 656.76,-379.46l2845.98 -0c270,14.59 510.81,153.24 656.76,379.46l1422.99 2466.52c116.76,240.81 116.76,518.12 0,758.93l-1422.99 2459.22c-145.94,226.22 -386.76,364.87 -656.76,379.46l-2845.98 0c-270,-14.59 -510.81,-153.24 -656.76,-379.46l-1422.99 -2466.52z"/>
   <path class="fil1" d="M3039.54 3428.85l1183.13 1248.63c32.74,-23.27 52.09,-52.39 80.52,-75.3 16.74,-13.49 26.2,-20.29 41.5,-36.56l193.78 -182.44c17.72,-15.09 21.99,-19.81 38.52,-39.07l158.08 -146.64c16.15,-13.05 20.1,-20.74 35.59,-35.87 26.28,-25.68 56.28,-59.03 79.9,-69.43 -19.28,-29.99 -30.54,-32.91 -56.48,-58.53 -12.02,-11.87 -44.8,-51.7 -51.03,-65.3 -15.67,-7.29 -7.31,-4.46 -21.37,-17.48l-466.29 -495.57c-28.63,-31.51 -56.97,-52.26 -82.35,-84.72l-117.27 -127.63c-71.78,-75.52 -582.89,-607.83 -601.33,-640.89 -30.68,13.28 -59.07,49.7 -85.28,74.37l-313.36 295.74c-24.59,24.13 -52.08,46.8 -78.5,71.13l-79.61 75.61c-15.81,14.7 -22.59,20.86 -39.2,38.38 -12.34,13.02 -25.27,22.3 -36.67,34.96 13.59,19.38 36.24,42.98 53.99,60.19l163.72 176.42z"/>
   <path class="fil1" d="M3123.3 5052.94c21.25,-37.79 120.95,-123.04 158.33,-158.8 28.68,-27.43 52.33,-56.1 76.59,-78.33 28.2,-25.85 52.9,-46.9 81.73,-73.84 23.97,-22.4 53.12,-56.86 76.78,-78.22l236.51 -225.94 -127.81 -136.2c-26.03,21.28 -48.01,43.85 -73.96,68.33 -20.22,19.08 -46.06,50.09 -67.29,69.97l-149.5 133.46c-2.51,5.42 -250.27,260.94 -299.8,277.2 -74.96,24.61 -119.56,-28.54 -155.8,-66.65l-287.11 -298.25c-60.94,-66.18 -149.97,-127.12 -149.11,-203.17 0.41,-35.6 19.17,-67.56 36.63,-81.37 23.93,10.49 177.33,190.12 220.21,218.04 22.44,8.9 47.84,6.52 71.64,-0.23 9.38,-21.23 0.9,-4.58 12.75,-7.38 10.15,-43.24 21.49,-27.03 12.07,-87.2 -14.43,-10.64 -38.72,-41.38 -52.37,-56.22 -18.22,-19.8 -29.74,-29.65 -53.29,-53.9 -19.44,-20.02 -96.22,-96.3 -104.36,-116.86 12.73,-14.97 36.95,-40.13 56.51,-49.22 26.49,34.26 194.39,216.74 227.89,225.9 42.59,11.64 80.11,-17.55 86.1,-54.61 0.2,-45.83 -16.46,-58.51 -42.89,-85.12 -24.03,-24.2 -166.69,-169.38 -173.09,-187.23l54.59 -47.45c115.8,90.55 207.41,280.12 296.54,208.03 29.96,-24.24 28.43,-70.19 2.18,-100.17 -20.97,-23.96 -43.36,-48.67 -65.97,-71.22 -33.36,-33.26 -109.61,-102.26 -129.92,-137.52 10.79,-17.52 36.02,-38.03 52.26,-51.94 41.57,35.87 74.19,84.46 114.56,116.89 42.5,34.15 68.46,88.52 124.51,109.74 43.65,5.79 67.44,-15.39 78.44,-49.28l-272.48 -295.67c-41.8,-38.13 -57.51,-64.56 -91.84,-97.65 -23.13,10.17 -82.05,73.8 -107.52,101.47 -33.82,36.73 -75.2,68.06 -111.62,103.41l-322.2 310.91c-34.18,32.45 -74.86,78.07 -107.79,106.86 -151.48,132.41 -91.32,156.99 -7.74,247.45l623.78 648.53c28,23.77 68.86,89.98 127.22,86.78 64.42,-3.53 98.61,-77.95 125.64,-83.33z"/>
   <path class="fil1" d="M4311.67 2163.91c-17.44,28.65 -97.09,92.97 -133.87,132.72l-205.54 200.46c-23.55,20.22 -47.15,41.31 -69.01,62.53 -23.59,22.9 -40.17,39.28 -68.66,68.66 -22.63,23.35 -51.22,46.96 -64.39,65.4l443.58 468.77c34.5,37.32 15.9,35.94 78.35,46.65 22.66,-21.53 45.77,-25.72 51.33,-64.71 6.42,-44.95 -32.37,-73.58 -81.09,-125.91l-136.96 -137.75c-9.75,-10.34 -5.74,-7.63 -13.15,-16.52 -21.76,-26.09 -87.39,-96.59 -118.8,-118.96 9.48,-25.3 6.14,-18.11 24.85,-34.83l78.46 -70.89c35.95,-36.74 70.98,-71.82 101.96,-100.98 46.98,-44.22 168.48,-175.32 215.02,-190.93 24.14,-31.14 96.59,-5.74 116.77,8.58l367.54 379.01c23.78,25.34 43.63,45.5 74.44,74.7 24.23,22.97 43.7,54.28 44.5,104.91 -6.29,67.42 -79.2,117.1 -115.63,153.33 -53.11,52.81 -86.73,85.05 -133.59,129.06l-270.17 261.1c14.34,30.07 68.01,76.89 93.63,103.29 13.43,13.83 20.21,24.77 31.57,34.98 24.44,-14.58 219.19,-213.61 259.17,-249.18 28.73,-25.57 61.26,-52.85 87.68,-79.78l256.47 -250.98c73.2,-62.61 50.48,-65.42 73.82,-94.49 -19.23,-87.28 -38.48,-79.81 -85.55,-133 -34.91,-39.44 -67.22,-73.62 -104.83,-110.32 -62.05,-60.55 -104.78,-114 -158.17,-164.3 -67.7,-63.77 -102.26,-111.07 -158.14,-164.34l-213.05 -216.86c-86.26,-92.06 -57.08,-64.25 -136.78,-80.81 -13.94,15.04 -18.24,12.25 -36.86,24.97 -15.33,10.46 -18.37,16 -30.64,29.17 -16.64,17.86 -42.11,47.22 -64.27,57.22z"/>
   <path class="fil1" d="M2275.98 2604.24l55.23 69.78c23.11,26.92 44.21,43.37 67.85,69.49l97.83 105.52c14,12.99 22.06,27.02 35.56,34.92l547.85 -514.35c26.01,-23.96 54.63,-46.05 77.81,-76.66 -16.65,-16.31 -179.7,-184.41 -186.06,-204.1 -46.7,-24.41 -103.3,-127.63 -245.63,-67.07 -56.3,23.95 -223.73,203.34 -280.33,251.09 -60.33,50.9 -47.21,45.89 -88.84,84.38 -101.13,93.52 -105.05,118.65 -81.28,247z"/>
   <path class="fil1" d="M4308.96 4770.46c10.28,1.2 19.03,4.11 27.15,7.07 8.3,3.02 6.58,2.43 13.53,5.63 10.81,4.97 8.56,4.17 13.36,7.13l206.06 76.82c15.61,4.62 77.74,26.92 90.41,38.81 22.54,-0.24 126.43,44.41 160.61,57.48 54.63,20.9 232.73,94.55 268.61,91.07 36.92,-4.8 31.2,-11.49 57.8,-18.64 8.06,-20.68 21.96,-26.07 25.91,-55 3.71,-27.29 -4.85,-51.54 -10.89,-72.39 -10.25,-35.36 -34.49,-91.87 -34.64,-124.44 -14.38,-15.08 -26.14,-65.72 -32.96,-89.38 -10.63,-29.37 -58.8,-173.38 -57.37,-194.89 -10.1,-13.14 -18.9,-38.01 -25.13,-73.84 -9.88,-11.9 -58.18,-172.71 -57.86,-191.35 -14.06,-15.62 -12.24,-26.91 -22.96,-57.09l-238.54 222.2c-22.96,21.65 -52.67,55.25 -75.57,73.31l-238.28 222.11c-14.56,13.17 -65.62,59.71 -69.24,75.39z"/>
   <path class="fil2 str0" d="M3695.69 3174.94c-25.56,6.22 -57.19,34.71 -69.93,50.87 -21.1,26.74 -15.35,57.41 2.75,80.46 19.07,24.28 41.42,41.14 58.75,60.25l174.23 184.07c20.07,21.73 35.81,42.63 56.37,63.41l467.74 493.74c44.76,54.19 77.98,76.11 144.56,-1.29 27.05,-31.44 21.89,-54.72 -4.25,-85.35l-756.93 -801.8c-14.43,-15.89 -40.08,-52.44 -73.3,-44.36z"/>
   <path class="fil1" d="M2789.28 3095.44c8.19,-23.97 219.8,-213.85 259.13,-250.03 12.68,-11.66 22.44,-24.88 34.93,-36.45l149.54 -137.33c26.2,-25.41 117.16,-116.67 150.65,-138.26l-165 -172.53 -623.66 591.93 159.98 168.43c12.75,-15.31 14.68,-19.49 34.44,-25.75z"/>
   <path class="fil1" d="M4383.96 2598.73c-2.35,12.4 0.8,3.85 -13.26,15.58 -6.87,5.74 -10.99,8.64 -16.64,12.54 -8.43,26.03 -9.46,16.25 -23.39,37.41 -7.35,11.17 -13.1,22.97 -18.09,35.7 -10.21,26.09 -17.61,62.46 -17.53,95.42 17.34,172.93 155.01,259.04 299.9,223.13 24.65,-6.11 35.67,-17.01 56.12,-19.48 6.57,-6.81 0.63,-1.08 10.31,-9.31 1.02,-0.86 2.43,-1.99 3.48,-2.87 88.49,-73.41 125.69,-144.76 95.31,-269.12 -13.29,-38.85 -28.2,-66.31 -51.81,-91.39 -10.14,-10.77 -22.96,-21.33 -38.96,-32.91 -10.78,-7.8 -28.06,-15.78 -38,-23.8 -124.43,-33.82 -148.08,-23.19 -247.45,29.09z"/>
   <path class="fil2 str0" d="M4513.9 4724.49c19.26,13.59 274.02,109.61 296.75,113.48 23.43,-30.96 49.67,-49.78 77.04,-75.54l82.74 -79.75c-1.1,-26.24 -75.83,-263.76 -90.8,-298.33 -20.91,5.3 -32.7,22.67 -47.41,36.02l-313.07 296.7c-0.73,0.93 -2.06,2.9 -2.65,3.68 -0.59,0.78 -1.81,2.44 -2.61,3.73z"/>
   <path class="fil2 str0" d="M3411.19 2889.5c-35.23,15.06 -101.33,72.32 -54.97,127.36 8.02,9.52 18.18,17.31 27,26.59 28.73,30.24 62.27,108.99 156.53,6.72 22.58,-24.5 16.28,-54.58 -1.79,-77.68 -13.74,-17.56 -36.28,-36.59 -52.7,-54.7 -15.76,-17.36 -39.07,-43.26 -74.06,-28.29z"/>
   <path class="fil2 str0" d="M4449.37 2682.05c-1.32,6.95 0.45,2.16 -7.43,8.74 -3.85,3.21 -6.16,4.84 -9.33,7.03 -4.72,14.59 -5.3,9.11 -13.11,20.98 -4.12,6.26 -7.35,12.87 -10.14,20.02 -5.72,14.63 -9.87,35.02 -9.83,53.5 9.72,96.95 86.91,145.22 168.14,125.09 13.82,-3.43 20,-9.53 31.46,-10.92 3.69,-3.82 0.35,-0.61 5.78,-5.22 0.57,-0.48 1.36,-1.12 1.95,-1.61 49.61,-41.16 70.47,-81.16 53.44,-150.88 -7.45,-21.78 -15.81,-37.18 -29.05,-51.24 -5.69,-6.04 -12.87,-11.96 -21.85,-18.45 -6.05,-4.37 -15.73,-8.85 -21.3,-13.34 -69.76,-18.96 -83.02,-13 -138.74,16.31z"/>
  </g>
 </g>
</svg>
