<?xml version="1.0" encoding="UTF-8"?>
<!DOCTYPE svg PUBLIC "-//W3C//DTD SVG 1.1//EN" "http://www.w3.org/Graphics/SVG/1.1/DTD/svg11.dtd">
<!-- Creator: CorelDRAW 2019 (64-Bit) -->
<svg xmlns="http://www.w3.org/2000/svg" xml:space="preserve" width="7.5in" height="7in" version="1.1" style="shape-rendering:geometricPrecision; text-rendering:geometricPrecision; image-rendering:optimizeQuality; fill-rule:evenodd; clip-rule:evenodd"
viewBox="0 0 7500 7000"
 xmlns:xlink="http://www.w3.org/1999/xlink"
 xmlns:xodm="http://www.corel.com/coreldraw/odm/2003">
 <defs>
  <style type="text/css">
   <![CDATA[
    .str0 {stroke:#14BF98;stroke-width:6.94;stroke-miterlimit:2.61313}
    .fil1 {fill:#FEFEFE}
    .fil2 {fill:black}
    .fil0 {fill:#14BF98}
    .fil3 {fill:#14BF98}
   ]]>
  </style>
 </defs>
 <g id="Layer_x0020_1">
  <metadata id="CorelCorpID_0Corel-Layer"/>
  <g id="_1902685799280">
   <path id="hexagon-green.svg" class="fil0" d="M281.39 3814.57c-116.76,-240.81 -116.76,-518.12 0,-758.93l1422.99 -2459.22c145.94,-226.22 386.76,-364.87 656.76,-379.46l2845.98 -0c270,14.59 510.81,153.24 656.76,379.46l1422.99 2466.52c116.76,240.81 116.76,518.12 0,758.93l-1422.99 2459.22c-145.94,226.22 -386.76,364.87 -656.76,379.46l-2845.98 0c-270,-14.59 -510.81,-153.24 -656.76,-379.46l-1422.99 -2466.52z"/>
   <g>
    <path class="fil1" d="M3665.82 2181.33l-220.09 91.11 -249.89 109.37 -926.63 401.23 215.17 89.73c230.95,93.58 482.85,187 704.67,294.26 137.62,55.7 272.78,116.23 412.48,171.9 201.42,80.25 124.04,77.14 410.95,-58.91 404.33,-191.72 875.56,-449.61 1286.59,-613.9l0 -15.79c-172.7,-47.89 -1387.62,-533.26 -1435.6,-540.3 -41.44,-6.08 -178.69,50.22 -197.65,71.29z"/>
    <path class="fil1" d="M3840.91 3577.48c-101.16,50.67 -110.07,20.81 -209.96,-21.12 -148.87,-62.48 -454.44,-197.99 -577.2,-238.18l-100.9 -48.59c-141.97,-40.36 -90.11,-38.91 -231.19,20.46l-453.42 183.67c44.79,43.07 1076.21,458.76 1212.42,515.68 138.81,58 254.6,130.71 333.63,90.89 207.93,-104.78 419.62,-196.69 625.65,-303.13l629.61 -295.58 230.5 -113.74 0 -13.13 -256.54 -84.87 -205.55 -77.34c-43.34,-8.67 -97.91,-35.46 -132.03,-29.64 -111.47,18.99 -731.85,347.93 -865.02,414.63z"/>
    <path class="fil1" d="M2723.93 3963.33c-97.18,41.65 -414.37,150.56 -456.01,192.9 230.69,86.92 469.56,192.43 697.44,289.77 72.3,30.88 150.65,58.87 225.52,94.97 82.59,31.82 432.56,164.1 473.87,206.94 145.02,9.1 43.27,52.84 214.51,-27.79l611.73 -292.82c262.54,-121.07 546.13,-278.84 809.37,-386.86l0 -14.84c-102.44,-22.93 -241.98,-80.94 -342.83,-115.15 -240.69,-81.65 -165.19,-84.54 -341.11,-3.66l-770.61 368.87c-83.04,40.71 -76.64,42.75 -162.33,5.03l-804.44 -336.24c-79.37,-31.74 -75.19,-14.08 -155.11,18.87z"/>
   </g>
  </g>
  <g id="_1902685785968">
   <path class="fil2" d="M35301.39 2539.53l1019.92 1076.39c28.22,-20.06 44.9,-45.17 69.41,-64.91 14.44,-11.63 22.59,-17.49 35.78,-31.52l167.04 -157.27c15.28,-13.01 18.96,-17.08 33.2,-33.68l136.28 -126.41c13.92,-11.25 17.33,-17.87 30.69,-30.93 22.65,-22.13 48.52,-50.88 68.87,-59.85 -16.62,-25.85 -26.33,-28.37 -48.69,-50.45 -10.36,-10.23 -38.62,-44.57 -43.99,-56.3 -13.52,-6.28 -6.31,-3.84 -18.42,-15.07l-401.96 -427.2c-24.68,-27.17 -49.11,-45.05 -70.99,-73.04l-101.09 -110.02c-61.88,-65.11 -502.48,-523.98 -518.38,-552.49 -26.45,11.44 -50.93,42.85 -73.52,64.12l-270.13 254.94c-21.2,20.8 -44.89,40.34 -67.67,61.32l-68.63 65.18c-13.64,12.67 -19.48,17.98 -33.79,33.08 -10.64,11.22 -21.78,19.22 -31.61,30.14 11.72,16.71 31.24,37.05 46.55,51.89l141.14 152.08z"/>
   <path class="fil2" d="M35373.6 3939.58c18.32,-32.58 104.26,-106.07 136.49,-136.89 24.72,-23.65 45.11,-48.36 66.02,-67.52 24.31,-22.29 45.61,-40.43 70.46,-63.65 20.66,-19.31 45.79,-49.02 66.18,-67.43l203.88 -194.77 -110.18 -117.42c-22.44,18.35 -41.39,37.8 -63.76,58.91 -17.43,16.45 -39.7,43.18 -58.01,60.31l-128.88 115.06c-2.16,4.67 -215.75,224.94 -258.44,238.96 -64.62,21.22 -103.06,-24.6 -134.3,-57.46l-247.51 -257.11c-52.54,-57.05 -129.28,-109.58 -128.54,-175.14 0.35,-30.69 16.52,-58.24 31.57,-70.15 20.63,9.04 152.87,163.9 189.83,187.96 19.35,7.68 41.24,5.63 61.76,-0.2 8.09,-18.3 0.78,-3.95 10.99,-6.36 8.75,-37.28 18.53,-23.3 10.41,-75.17 -12.44,-9.17 -33.38,-35.67 -45.15,-48.46 -15.7,-17.07 -25.64,-25.57 -45.93,-46.46 -16.76,-17.26 -82.95,-83.01 -89.97,-100.74 10.97,-12.91 31.85,-34.59 48.72,-42.43 22.84,29.53 167.57,186.84 196.45,194.73 36.72,10.04 69.06,-15.13 74.22,-47.07 0.17,-39.51 -14.19,-50.44 -36.97,-73.38 -20.71,-20.86 -143.69,-146.01 -149.21,-161.4l47.06 -40.9c99.82,78.06 178.8,241.48 255.63,179.33 25.83,-20.9 24.51,-60.51 1.88,-86.35 -18.08,-20.66 -37.38,-41.96 -56.87,-61.4 -28.76,-28.67 -94.48,-88.15 -112,-118.55 9.3,-15.11 31.05,-32.78 45.05,-44.78 35.84,30.93 63.95,72.81 98.76,100.77 36.64,29.43 59.02,76.31 107.34,94.6 37.63,5 58.14,-13.26 67.62,-42.48l-234.89 -254.88c-36.04,-32.87 -49.58,-55.65 -79.17,-84.19 -19.93,8.77 -70.73,63.62 -92.69,87.47 -29.16,31.67 -64.83,58.68 -96.22,89.15l-277.75 268.02c-29.47,27.98 -64.53,67.3 -92.92,92.12 -130.58,114.15 -78.72,135.33 -6.67,213.31l537.74 559.07c24.14,20.48 59.35,77.56 109.66,74.81 55.54,-3.04 85.01,-67.2 108.31,-71.84z"/>
   <path class="fil2" d="M36398.04 1449.08c-15.04,24.7 -83.69,80.15 -115.41,114.42l-177.18 172.81c-20.3,17.43 -40.64,35.61 -59.49,53.91 -20.34,19.74 -34.63,33.86 -59.19,59.19 -19.51,20.13 -44.15,40.48 -55.5,56.38l382.39 404.1c29.75,32.17 13.7,30.98 67.55,40.22 19.53,-18.56 39.46,-22.18 44.25,-55.78 5.53,-38.75 -27.91,-63.43 -69.91,-108.54l-118.07 -118.75c-8.4,-8.91 -4.95,-6.58 -11.34,-14.24 -18.76,-22.5 -75.33,-83.27 -102.41,-102.56 8.17,-21.81 5.3,-15.61 21.43,-30.02l67.64 -61.11c30.99,-31.67 61.19,-61.92 87.89,-87.05 40.5,-38.12 145.24,-151.13 185.35,-164.59 20.81,-26.84 83.27,-4.95 100.66,7.4l316.84 326.72c20.5,21.85 37.61,39.23 64.17,64.4 20.89,19.8 37.67,46.8 38.36,90.44 -5.42,58.12 -68.27,100.94 -99.68,132.18 -45.78,45.53 -74.76,73.31 -115.16,111.26l-232.9 225.09c12.36,25.93 58.63,66.28 80.71,89.04 11.57,11.93 17.43,21.35 27.22,30.15 21.07,-12.57 188.96,-184.14 223.42,-214.81 24.77,-22.04 52.81,-45.56 75.58,-68.77l221.09 -216.36c63.1,-53.97 43.52,-56.39 63.64,-81.45 -16.57,-75.24 -33.17,-68.8 -73.75,-114.65 -30.09,-34 -57.95,-63.47 -90.37,-95.1 -53.49,-52.19 -90.33,-98.28 -136.35,-141.63 -58.36,-54.98 -88.15,-95.75 -136.33,-141.67l-183.66 -186.95c-74.36,-79.36 -49.2,-55.39 -117.91,-69.66 -12.01,12.97 -15.72,10.56 -31.78,21.53 -13.22,9.02 -15.84,13.8 -26.41,25.14 -14.34,15.4 -36.3,40.71 -55.41,49.32z"/>
   <path class="fil2" d="M34643.17 1828.67l47.61 60.15c19.92,23.2 38.11,37.39 58.49,59.9l84.34 90.97c12.06,11.2 19.02,23.29 30.65,30.11l472.28 -443.41c22.42,-20.66 47.09,-39.69 67.08,-66.09 -14.35,-14.05 -154.91,-158.97 -160.39,-175.94 -40.26,-21.04 -89.05,-110.02 -211.74,-57.81 -48.53,20.65 -192.87,175.29 -241.66,216.46 -52.01,43.87 -40.7,39.56 -76.59,72.74 -87.18,80.61 -90.56,102.28 -70.07,212.93z"/>
   <path class="fil2" d="M36395.7 3696.07c8.87,1.03 16.41,3.54 23.41,6.09 7.15,2.6 5.67,2.09 11.66,4.85 9.32,4.28 7.39,3.6 11.52,6.15l177.64 66.23c13.45,3.98 67.01,23.2 77.94,33.45 19.43,-0.21 108.98,38.28 138.45,49.55 47.09,18.02 200.63,81.51 231.56,78.51 31.83,-4.14 26.89,-9.91 49.83,-16.07 6.94,-17.83 18.94,-22.47 22.33,-47.41 3.2,-23.53 -4.18,-44.44 -9.39,-62.4 -8.83,-30.48 -29.73,-79.19 -29.85,-107.27 -12.4,-13 -22.54,-56.66 -28.42,-77.05 -9.16,-25.31 -50.69,-149.46 -49.46,-168.01 -8.7,-11.32 -16.29,-32.76 -21.67,-63.65 -8.52,-10.26 -50.15,-148.89 -49.88,-164.96 -12.12,-13.46 -10.55,-23.19 -19.79,-49.22l-205.64 191.55c-19.79,18.67 -45.41,47.63 -65.15,63.2l-205.41 191.46c-12.55,11.36 -56.57,51.48 -59.69,64.99z"/>
   <path class="fil3 str0" d="M35867.04 2320.65c-22.04,5.36 -49.3,29.93 -60.29,43.85 -18.19,23.05 -13.23,49.49 2.37,69.36 16.44,20.93 35.7,35.46 50.64,51.93l150.2 158.68c17.3,18.74 30.87,36.74 48.59,54.66l403.22 425.63c38.59,46.71 67.22,65.61 124.62,-1.11 23.32,-27.11 18.87,-47.17 -3.66,-73.58l-652.51 -691.19c-12.44,-13.7 -34.55,-45.2 -63.19,-38.24z"/>
   <path class="fil2" d="M35085.66 2252.11c7.06,-20.67 189.47,-184.35 223.38,-215.54 10.93,-10.05 19.35,-21.45 30.11,-31.42l128.91 -118.39c22.59,-21.9 101,-100.57 129.87,-119.19l-142.24 -148.73 -537.63 510.27 137.91 145.19c10.99,-13.2 12.65,-16.8 29.69,-22.19z"/>
   <path class="fil2" d="M36460.35 1823.92c-2.03,10.69 0.69,3.32 -11.43,13.43 -5.93,4.94 -9.47,7.45 -14.34,10.81 -7.26,22.44 -8.15,14.01 -20.16,32.25 -6.33,9.63 -11.3,19.8 -15.59,30.78 -8.8,22.49 -15.18,53.84 -15.11,82.26 14.95,149.07 133.63,223.3 258.53,192.35 21.25,-5.27 30.75,-14.66 48.38,-16.79 5.67,-5.87 0.54,-0.93 8.89,-8.02 0.87,-0.74 2.09,-1.72 3,-2.47 76.28,-63.28 108.35,-124.79 82.16,-231.99 -11.45,-33.49 -24.31,-57.17 -44.66,-78.78 -8.74,-9.28 -19.8,-18.39 -33.59,-28.37 -9.3,-6.72 -24.19,-13.6 -32.76,-20.52 -107.27,-29.15 -127.66,-19.99 -213.32,25.07z"/>
   <path class="fil3 str0" d="M36572.37 3656.44c16.6,11.72 236.22,94.49 255.81,97.82 20.2,-26.69 42.82,-42.91 66.42,-65.11l71.33 -68.75c-0.95,-22.63 -65.37,-227.37 -78.28,-257.18 -18.03,4.56 -28.19,19.54 -40.87,31.06l-269.88 255.78c-0.63,0.81 -1.78,2.5 -2.28,3.17 -0.51,0.67 -1.56,2.11 -2.25,3.22z"/>
   <path class="fil3 str0" d="M35621.77 2074.58c-30.37,12.98 -87.35,62.35 -47.39,109.8 6.91,8.2 15.67,14.93 23.27,22.92 24.77,26.06 53.68,93.96 134.94,5.79 19.47,-21.12 14.04,-47.06 -1.54,-66.96 -11.85,-15.14 -31.27,-31.55 -45.43,-47.16 -13.58,-14.96 -33.68,-37.28 -63.85,-24.39z"/>
   <path class="fil3 str0" d="M36516.74 1895.75c-1.14,5.99 0.39,1.86 -6.41,7.53 -3.32,2.77 -5.31,4.18 -8.04,6.06 -4.07,12.58 -4.57,7.85 -11.3,18.08 -3.55,5.4 -6.33,11.1 -8.74,17.26 -4.94,12.61 -8.51,30.19 -8.47,46.12 8.38,83.58 74.92,125.19 144.94,107.84 11.91,-2.95 17.24,-8.22 27.12,-9.41 3.18,-3.29 0.3,-0.52 4.98,-4.5 0.49,-0.42 1.17,-0.96 1.69,-1.39 42.77,-35.48 60.74,-69.96 46.06,-130.06 -6.42,-18.78 -13.63,-32.05 -25.04,-44.17 -4.9,-5.2 -11.1,-10.31 -18.83,-15.91 -5.21,-3.77 -13.56,-7.63 -18.37,-11.5 -60.14,-16.34 -71.57,-11.21 -119.59,14.06z"/>
  </g>
 </g>
</svg>
